<svg width="24" height="24" viewBox="0 0 24 24" fill="none" xmlns="http://www.w3.org/2000/svg">
<g clip-path="url(#clip1)">
<path fill-rule="evenodd" clip-rule="evenodd" d="M13.5 20c1.104 0 2 .896 2 2s-.896 2-2 2-2-.896-2-2 .896-2 2-2zm-10.502 4c-.598 0-2.429-1.754-2.747-4.304-.424-3.414 2.124-5.593 4.413-5.87.587-1.895 2.475-4.684 6.434-4.77.758-1.982 3.409-4.507 6.84-3.186 1.647.634 3.101 2.101 3.705 3.737.231.624-.71.965-.937.347-.51-1.378-1.737-2.615-3.127-3.151-2.577-.99-4.695.731-5.422 2.298 1.107.12 2.092.455 2.755.889.909.594 1.473 1.558 1.508 2.577.031.889-.33 1.687-.991 2.187-.654.496-1.492.643-2.298.404-.966-.286-1.748-1.076-2.143-2.169-.287-.793-.384-1.847-.178-2.921-3.064.185-4.537 2.306-5.075 3.742 1.18.102 2.211.574 2.831 1.012.959.676 1.497 1.6 1.513 2.599.015.859-.363 1.664-1.011 2.155-.608.46-1.535.599-2.363.348-.961-.289-1.7-1.041-2.079-2.118-.255-.723-.375-1.776-.204-2.919-1.631.361-3.512 1.995-3.178 4.685.18 1.448 1.008 2.888 2.015 3.502.43.261.242.926-.261.926zm17.308-10.026l1.205 2.225 2.489.459-1.744 1.833.333 2.509-2.283-1.092-2.283 1.092.333-2.509-1.744-1.833 2.489-.459 1.205-2.225zm-14.85.822c-.202 1.024-.128 1.993.113 2.678.347.984.966 1.355 1.424 1.492.604.183 1.175.036 1.472-.187.388-.294.624-.808.614-1.34-.011-.673-.398-1.313-1.09-1.801-.545-.385-1.479-.803-2.533-.842zm6.373-4.716c-.226 1.018-.11 1.99.099 2.569.287.79.828 1.356 1.486 1.55.501.148 1.014.06 1.411-.242.398-.301.615-.795.596-1.355-.025-.705-.409-1.353-1.056-1.775-.511-.334-1.448-.657-2.536-.747zm-7.329-10.08l1.468 2.711 3.032.558-2.124 2.234.405 3.057-2.781-1.331-2.781 1.331.405-3.057-2.124-2.234 3.032-.558 1.468-2.711zm17 0c1.38 0 2.5 1.12 2.5 2.5s-1.12 2.5-2.5 2.5-2.5-1.12-2.5-2.5 1.12-2.5 2.5-2.5z" fill="url(#paint0_linear)"/>
</g>
<defs>
<linearGradient id="paint0_linear" x1="0" y1="0" x2="24" y2="24" gradientUnits="userSpaceOnUse">
<stop stop-color="#F77DD0"/>
<stop offset="1" stop-color="#FBD999"/>
</linearGradient>
<clipPath id="clip1">
<rect width="24" height="24" fill="white"/>
</clipPath>
</defs>
</svg>
