<svg width="24" height="24" viewBox="0 0 24 24" fill="none" xmlns="http://www.w3.org/2000/svg">
<g clip-path="url(#clip0)">
<path fill-rule="evenodd" clip-rule="evenodd" d="M19.205 17.646c-.865.18-1.771.07-2.573-.323-.953-.466-1.682-1.291-2.026-2.295-.791-2.305-1.405-5.566-1.975-8.837l5.675-1.947c1.525 2.958 3.087 5.915 3.867 8.188.344 1.003.276 2.102-.19 3.055-.392.802-1.039 1.446-1.832 1.834l1.215 3.542c.29.814 1.322.926 2.392.809l.242.705-4.729 1.623-.261-.759c.903-.478 1.688-1.214 1.41-2.053l-1.215-3.542zm-15.356-.325c-.793-.388-1.44-1.032-1.832-1.834-.466-.953-.534-2.052-.19-3.055.78-2.273 2.342-5.23 3.867-8.188l5.675 1.947c-.57 3.271-1.184 6.532-1.975 8.837-.344 1.004-1.073 1.829-2.026 2.295-.802.393-1.708.503-2.573.323l-1.205 3.512c-.278.839.507 1.575 1.41 2.053l-.271.789-4.729-1.623.252-.735c1.07.118 2.102.005 2.392-.808l1.205-3.513zm14.901-2.821c.414 0 .75.336.75.75s-.336.75-.75.75-.75-.336-.75-.75.336-.75.75-.75zm-15-1c.414 0 .75.336.75.75s-.336.75-.75.75-.75-.336-.75-.75.336-.75.75-.75zm2.5-1.5c.414 0 .75.336.75.75s-.336.75-.75.75-.75-.336-.75-.75.336-.75.75-.75zm11.75-.107c.414 0 .75.336.75.75s-.336.75-.75.75-.75-.336-.75-.75.336-.75.75-.75zm1.939-1.893c-.663-1.525-1.441-3.012-2.178-4.512l-3.917 1.344c.214 1.059.41 2.121.636 3.168h5.459zm-10.419 0c.226-1.047.422-2.109.636-3.168l-3.917-1.344c-.737 1.5-1.515 2.987-2.178 4.512h5.459zm4.915-6.015l1.642-2.79c.141-.238.061-.545-.177-.685-.238-.139-.544-.062-.684.177l-1.643 2.79c-.14.238-.06.545.177.685.08.047.167.069.254.069.171 0 .338-.088.431-.246zm-4.552.246c-.171 0-.337-.088-.431-.246l-1.643-2.79c-.14-.238-.061-.545.177-.685s.544-.061.685.177l1.643 2.79c.14.238.061.545-.177.685-.08.047-.167.069-.254.069zm2.621-.708v-3.023c0-.277-.224-.5-.5-.5s-.5.223-.5.5v3.023c0 .276.224.5.5.5s.5-.224.5-.5z" fill="url(#paint0_linear)"/>
</g>
<defs>
<linearGradient id="paint0_linear" x1="0" y1="0" x2="24" y2="24" gradientUnits="userSpaceOnUse">
<stop stop-color="#F77DD0"/>
<stop offset="1" stop-color="#FBD999"/>
</linearGradient>
<clipPath id="clip0">
<rect width="24" height="24" fill="white"/>
</clipPath>
</defs>
</svg>
